/* XPM */
static char *ecc5e79ad5e14312e1728b5a479efe1buelZo9ROnOZ8JfKN[] = {
/* columns rows colors chars-per-pixel */
"32 32 6 1 ",
"  c #2D2D2D",
". c gray50",
"X c #3A97EA",
"o c #458DCE",
"O c #4AA5F7",
"+ c white",
/* pixels */
"................................",
"................................",
"................................",
"................................",
"................................",
"................................",
"................................",
"................................",
"................................",
"............XXXXXXX.............",
"..........XXXXXXXXXXX...........",
".........XXXOOOOOOO+XX..........",
"........XXOOOOOOOOOO+XX.........",
"........XXOOOOOOOOOOOXX.........",
".......XXOOOOOOOOOOOOOXX........",
".......XXOOOOOO OOOOO XX........",
"......XXOOOOOOO OOOOO OXX.......",
"......XXOOOOOOO OOOOO OXX.......",
"......XXOOOOOOOOOOOOOOOXX.......",
"......XXOOOOOOOOOOOOOOOXX.......",
"......oXOOOOOOOOOOOOOOOXX.......",
"......ooOOOOOOOOOOOOOOOXX.......",
".......ooOOOOOOOOOOOOOXX........",
"........ooXXXXXXXXXXXXX.........",
".........ooooooooooooo..........",
"................................",
"................................",
"................................",
"................................",
"................................",
"................................",
"................................"
};
