/* XPM */
static char *_7450b0b1f824eccc68f84998de340aemJ1AdEEguiGaIaia[] = {
/* columns rows colors chars-per-pixel */
"31 31 6 1 ",
"  c None",
". c #2D2D2D",
"X c #3A97EA",
"o c #458DCE",
"O c #4AA5F7",
"+ c white",
/* pixels */
"                               ",
"                               ",
"                               ",
"                               ",
"                               ",
"                               ",
"                               ",
"                               ",
"                               ",
"                               ",
"               XXXXXXX         ",
"             XXXXXXXXXXX       ",
"            XXXOOOOOOO+XX      ",
"           XXOOOOOOOOOO+XX     ",
"          XXOOOOOOOOOOOOOXX    ",
"          XXOOOOOOOOOOOOOXX    ",
"         XXOOOOOOO.OOOOO.OXX   ",
"         XXOOOOOOO.OOOOO.OXX   ",
"         XXOOOOOOO.OOOOO.OXX   ",
"         XXOOOOOOOOOOOOOOOXX   ",
"         XXOOOOOOOOOOOOOOOXX   ",
"         oXOOOOOOOOOOOOOOOXX   ",
"         ooXOOOOOOOOOOOOOXXX   ",
"          ooXXXXXXXXXXXXXXX    ",
"           ooooooooooooooo     ",
"                               ",
"                               ",
"                               ",
"                               ",
"                               ",
"                               "
};
