/* XPM */
static char *_bfc7acedc5247eaefc1f887dcbbc0dd9GeyIKf1NyLhNmCv[] = {
/* columns rows colors chars-per-pixel */
"32 32 6 1 ",
"  c #2D2D2D",
". c gray50",
"X c #3A97EA",
"o c #458DCE",
"O c #4AA5F7",
"+ c white",
/* pixels */
"................................",
"................................",
"................................",
"................................",
"................................",
"................................",
"................................",
"................................",
"................................",
"................................",
"...............XXXXXXX..........",
".............XXXXXXXXXXX........",
"............XXXOOOOOOO+XX.......",
"...........XXOOOOOOOOOO+XX......",
"..........XXOOOOOOOOOOOOOXX.....",
"..........XXOOOOOOOOOOOOOXX.....",
".........XXOOOOOOO OOOOO OXX....",
".........XXOOOOOOO OOOOO OXX....",
".........XXOOOOOOO OOOOO OXX....",
".........XXOOOOOOOOOOOOOOOXX....",
".........XXOOOOOOOOOOOOOOOXX....",
".........oXOOOOOOOOOOOOOOOXX....",
".........ooXOOOOOOOOOOOOOXXX....",
"..........ooXXXXXXXXXXXXXXX.....",
"...........ooooooooooooooo......",
"................................",
"................................",
"................................",
"................................",
"................................",
"................................",
"................................"
};
