/* XPM */
static char *_07f36edac214a34827b401e183ee60e2V9GbKpGdl1C3Ugo[] = {
/* columns rows colors chars-per-pixel */
"32 32 6 1 ",
"  c #2D2D2D",
". c gray50",
"X c #3A97EA",
"o c #458DCE",
"O c #4AA5F7",
"+ c white",
/* pixels */
"................................",
"................................",
"................................",
"................................",
"................................",
"................................",
"................................",
"................................",
"................................",
"................................",
"................................",
".............XXXXXXX............",
"...........XXXXXXXXXXX..........",
"..........XXXOOOOOOO+XX.........",
".........XXOOOOOOOOOO+XX........",
"........XXOOOOOOOOOOOOOXX.......",
"........XXOOOOOO OOOOO XX.......",
".......XXOOOOOOO OOOOO OXX......",
".......XXOOOOOOO OOOOO OXX......",
".......XXOOOOOOOOOOOOOOOXX......",
".......XXOOOOOOOOOOOOOOOXX......",
".......oXOOOOOOOOOOOOOOOXX......",
".......oooOOOOOOOOOOOOOXXX......",
"........oooXXXXXXXXXXXXXX.......",
"..........ooooooooooooo.........",
"................................",
"................................",
"................................",
"................................",
"................................",
"................................",
"................................"
};
