/* XPM */
static char *_ad7d4c3dd0f4be4e16ba1bf6e46fbe3LZ9tFucz0INWvJp5[] = {
/* columns rows colors chars-per-pixel */
"32 32 6 1 ",
"  c #2D2D2D",
". c gray50",
"X c #3A97EA",
"o c #458DCE",
"O c #4AA5F7",
"+ c white",
/* pixels */
"................................",
"................................",
"................................",
"................................",
"................................",
"................................",
"................................",
"................................",
"................................",
"................................",
"................................",
"................................",
"..............XXXXXXX...........",
"............XXXXXXXXXXX.........",
"...........XXXOOOOOOO+XX........",
"..........XXOOOOOOOOOO+XX.......",
".........XXOOOOOOOOOOOOOXX......",
"........XXOOOOOOO OOOOO OXX.....",
"........XXOOOOOOO OOOOO OXX.....",
"........XXOOOOOOO OOOOO OXX.....",
"........XXOOOOOOOOOOOOOOOXX.....",
"........XXOOOOOOOOOOOOOOOXX.....",
"........oXXOOOOOOOOOOOOOXXX.....",
"........oooXXXXXXXXXXXXXXXX.....",
"..........ooooooooooooooo.......",
"................................",
"................................",
"................................",
"................................",
"................................",
"................................",
"................................"
};
