/* XPM */
static char *_cffc54442484c7df77779ee328df22aX5gz5xHEPUXIgCEH[] = {
/* columns rows colors chars-per-pixel */
"31 31 6 1 ",
"  c None",
". c #2D2D2D",
"X c #3A97EA",
"o c #458DCE",
"O c #4AA5F7",
"+ c white",
/* pixels */
"                               ",
"                               ",
"                               ",
"                               ",
"                               ",
"                               ",
"                               ",
"                               ",
"                               ",
"            XXXXXXX            ",
"          XXXXXXXXXXX          ",
"         XXXOOOOOOO+XX         ",
"        XXOOOOOOOOOO+XX        ",
"        XXOOOOOOOOOOOXX        ",
"       XXOOOOOOOOOOOOOXX       ",
"       XXOOOOOO.OOOOO.XX       ",
"      XXOOOOOOO.OOOOO.OXX      ",
"      XXOOOOOOO.OOOOO.OXX      ",
"      XXOOOOOOOOOOOOOOOXX      ",
"      XXOOOOOOOOOOOOOOOXX      ",
"      oXOOOOOOOOOOOOOOOXX      ",
"      ooOOOOOOOOOOOOOOOXX      ",
"       ooOOOOOOOOOOOOOXX       ",
"        ooXXXXXXXXXXXXX        ",
"         ooooooooooooo         ",
"                               ",
"                               ",
"                               ",
"                               ",
"                               ",
"                               "
};
