/* XPM */
static char *_7b134e58b4f4908a44c99f1a2cda62aP406nh8vbUjkheMc[] = {
/* columns rows colors chars-per-pixel */
"31 31 6 1 ",
"  c None",
". c #2D2D2D",
"X c #3A97EA",
"o c #458DCE",
"O c #4AA5F7",
"+ c white",
/* pixels */
"                               ",
"                               ",
"                               ",
"                               ",
"                               ",
"                               ",
"                               ",
"                               ",
"                               ",
"                               ",
"                               ",
"             XXXXXXX           ",
"           XXXXXXXXXXX         ",
"          XXXOOOOOOO+XX        ",
"         XXOOOOOOOOOO+XX       ",
"        XXOOOOOOOOOOOOOXX      ",
"        XXOOOOOO.OOOOO.XX      ",
"       XXOOOOOOO.OOOOO.OXX     ",
"       XXOOOOOOO.OOOOO.OXX     ",
"       XXOOOOOOOOOOOOOOOXX     ",
"       XXOOOOOOOOOOOOOOOXX     ",
"       oXOOOOOOOOOOOOOOOXX     ",
"       oooOOOOOOOOOOOOOXXX     ",
"        oooXXXXXXXXXXXXXX      ",
"          ooooooooooooo        ",
"                               ",
"                               ",
"                               ",
"                               ",
"                               ",
"                               "
};
