/* XPM */
static char *d9e7761693394418db93f997c6a5f3d6PWJe2xcnG8lToIUM[] = {
/* columns rows colors chars-per-pixel */
"32 32 10 1 ",
"  c black",
". c #2D2D2D",
"X c #3B2121",
"o c #452727",
"O c gray50",
"+ c #FFF200",
"@ c #3A97EA",
"# c #458DCE",
"$ c #4AA5F7",
"% c white",
/* pixels */
"OOOOOOOOOOOOOOOOOOOOOOOOOOOOOOOO",
"OOOOOOOOOOOOOOOOOOOOOOOOOOOOOOOO",
"OOOOOOOO                 OOOOOOO",
"OOOOOO                    OOOOOO",
"OOOOOO                     OOOOO",
"OOOOO                       OOOO",
"OOOOO                       OOOO",
"OOOO      XXoXXXoXXXXoX      OOO",
"OOOO     XXXoXXXoXXXXoXX     OOO",
"OOOO     XXXoXXXoXXXXoXX     OOO",
"OOOO     XXXoXXXoXXXXoXX     OOO",
"OOOO     XXXoXXXoXXXXoXX     OOO",
"OOOO     XXXoXXXoXXXXoXX     OOO",
"OOOO     XXXoXXXoXXXXoXX     OOO",
"OOOO     XXXoXXXoXXXXoXX     OOO",
"OOOO     XXXoXXXoXXXXoXX     OOO",
"OOOO     XXXoXXXoXXXXoXX     OOO",
"OOOO     XXXoXXXoXXXXoXX     OOO",
"OOOO     XXXoXXXoXXXXoXX     OOO",
"OOOO  @@@@@@@XXXoXXXXoXX     OOO",
"OOOO@@@@@@@@@@@XoXXXXoXX     OOO",
"OOO@@@$$$$$$$%@@oXXXXoXX     OOO",
"OO@@$$$$$$$$$$%@@XXXXoXX     OOO",
"O@@$$$$$$$$$$$$$@@+++oXX     OOO",
"@@$$$$$$$.$$$$$.$@@X+oXX     OOO",
"@@$$$$$$$.$$$$$.$@@XXoXX     OOO",
"@@$$$$$$$.$$$$$.$@@XXoXX     OOO",
"@@$$$$$$$$$$$$$$$@@XXoXX     OOO",
"@@$$$$$$$$$$$$$$$@@XXoXX     OOO",
"#@@$$$$$$$$$$$$$@@@XXoXX     OOO",
"###@@@@@@@@@@@@@@@@XXoXX     OOO",
"OO###############XXXXoXX     OOO"
};
