/* XPM */
static char *_b52d0aec3cc4546b952b242742aca836NPxkOlk8YiT3dE0[] = {
/* columns rows colors chars-per-pixel */
"32 32 5 1 ",
"  c black",
". c #3B2121",
"X c #452727",
"o c gray50",
"O c #FFF200",
/* pixels */
"oooooooooooooooooooooooooooooooo",
"oooooooooooooooooooooooooooooooo",
"oooooooo                 ooooooo",
"oooooo                    oooooo",
"oooooo                     ooooo",
"ooooo                       oooo",
"ooooo                       oooo",
"oooo      XXXXX..oooooo      ooo",
"oooo     XXXXX...ooooooo     ooo",
"oooo     XXXX...oooooooo     ooo",
"oooo     X..X...oooooooo     ooo",
"oooo     ...X...oooooooo     ooo",
"oooo     ...X...oooooooo     ooo",
"oooo     ...X...oooooooo     ooo",
"oooo     ...X...oooooooo     ooo",
"oooo     ...X...oooooooo     ooo",
"oooo     ...X...oooooooo     ooo",
"oooo     ...X...oooooooo     ooo",
"oooo     ...X...oooooooo     ooo",
"oooo     ...X.OOOooooooo     ooo",
"oooo     ...X...Oooooooo     ooo",
"oooo     ...X...oooooooo     ooo",
"oooo     ...X...oooooooo     ooo",
"oooo     ...X...oooooooo     ooo",
"oooo     ...X...oooooooo     ooo",
"oooo     ...X...oooooooo     ooo",
"oooo     ...X...oooooooo     ooo",
"oooo     ...X...oooooooo     ooo",
"oooo     ...XX..oooooooo     ooo",
"oooo     ..XXX..oooooooo     ooo",
"oooo     .XXXX..oooooooo     ooo",
"oooo     XXXXX..oooooooo     ooo"
};
