/* XPM */
static char *_b0d06041a7f4fbbd94d582d7828716aum2tbef5o49jkthC[] = {
/* columns rows colors chars-per-pixel */
"32 32 2 1 ",
"  c black",
". c #880015",
/* pixels */
"........   ..........   ........",
"........   ..........   ........",
"........   ..........   ........",
"........   ..........   ........",
"                                ",
"                                ",
"                                ",
"........   ..........   ........",
"........   ..........   ........",
"........   ..........   ........",
"........   ..........   ........",
"........   ..........   ........",
"                                ",
"                                ",
"                                ",
"........   ..........   ........",
"........   ..........   ........",
"........   ..........   ........",
"........   ..........   ........",
"........   ..........   ........",
"........   ..........   ........",
"                                ",
"                                ",
"                                ",
"........   ..........   ........",
"........   ..........   ........",
"........   ..........   ........",
"........   ..........   ........",
"                                ",
"                                ",
"                                ",
"........   ..........   ........"
};
