/* XPM */
static char *ebfef8f943d44d8ce52df710c94e2fae7ow7hoWqho5fLoNC[] = {
/* columns rows colors chars-per-pixel */
"32 32 88 1 ",
"  c #010101",
". c #040400",
"X c #0C0B00",
"o c #0D0C00",
"O c #111000",
"+ c #141300",
"@ c #161500",
"# c #1F1D00",
"$ c #222000",
"% c #242200",
"& c #2C2A00",
"* c #302E00",
"= c #353200",
"- c #373400",
"; c #393600",
": c #3B3800",
"> c #3E3B00",
", c #3F3C00",
"< c #202020",
"1 c #393939",
"2 c #3C3C3C",
"3 c #403D00",
"4 c #434000",
"5 c #464200",
"6 c #4B4700",
"7 c #4E4A00",
"8 c #514D00",
"9 c #545000",
"0 c #5A5500",
"q c #5C5700",
"w c #5E5900",
"e c #605B00",
"r c #635E00",
"t c #645F00",
"y c #696400",
"u c #6D6700",
"i c #6E6800",
"p c #706A00",
"a c #726C00",
"s c #756F00",
"d c #767000",
"f c #787200",
"g c #7A7400",
"h c #7F7900",
"j c gray26",
"k c gray28",
"l c #4C4C4C",
"z c gray35",
"x c gray36",
"c c gray50",
"v c #827B00",
"b c #857E00",
"n c #8A8300",
"m c #8B8400",
"M c #8D8600",
"N c #968E00",
"B c #989000",
"V c #9C9400",
"C c #A39B00",
"Z c #A79E00",
"A c #ACA300",
"S c #B2A900",
"D c #B4AB00",
"F c #BBB100",
"G c #BCB200",
"H c #C1B700",
"J c #C4BA00",
"K c #C7BD00",
"L c #C9BF00",
"P c #CAC000",
"I c #CCC200",
"U c #CFC400",
"Y c #D0C500",
"T c #D3C800",
"R c #D4C900",
"E c #D9CE00",
"W c #DBD000",
"Q c #DED300",
"! c #E3D700",
"~ c #E7DB00",
"^ c #E9DD00",
"/ c #ECE000",
"( c #F0E400",
") c #F6E900",
"_ c #F8EB00",
"` c #FBEE00",
"' c #FCEF00",
"] c #FFF200",
/* pixels */
"cccccccccccccccccccccccccccccccc",
"cccccccccccc<      ccccccccccccc",
"ccccccccc2  ]]]]]]]   cccccccccc",
"cccccccc1]]]]]]]]]]]]] ccccccccc",
"cccccccz]]]]]]]]]]]]]]]  ccccccc",
"cccccx ]]]]]]]]]]]]]]]]]] cccccc",
"ccccc ]]]]]]]]]]]]]]]]]]]] ccccc",
"ccccj]]]]]]]]]]]]]]]]]]]]] ccccc",
"ccck]]]]]]]]]]]]]]]]]]]]]]] cccc",
"ccc ]]]]]]]'!Y!`]])!RUQ(]]] cccc",
"cc1]]]]]]]]Rw$v/]]Vq3*4B(]]] ccc",
"cc ]]]]]]]/d*Xb(](sbZB&3Q]]] ccc",
"cl]]]]]]]]C7w@C)]`~)]`s&I]]]] cc",
"c ]]]]]]]L6MaOP]]]]]]'y,E]]]] cc",
"c ]]]]]]R7iYt*W]]]]]]Y;t^]]]] cc",
"c ]]]]]^s7IE7e~]]]]]!r-D`]]]] cc",
"c ]]]]_C5G`J=n(]]]]~i+B(]]]]] cc",
"c ]]]]K6gQ^C#Z/]]]!f=N/]]]]]] cc",
"c ]]]]h%6rt3o7C(]Rp6V/]]]]]]] cc",
"c ]]]]FNNBm>:nJ(H79S(]]]]]]]] cc",
"cc ]]]]]]]!8s(]T7.6pssnQ]]]] ccc",
"cc ]]]]]]]!uA]]K036777yW]]]] ccc",
"ccc ]]]]]]]]]]]]]]]]]]]]]]] cccc",
"ccc ]]]]]]]]]]]]]]]]]]]]]]] cccc",
"cccc ]]]]]]]]]]]]]]]]]]]]] ccccc",
"ccccc ]]]]]]]]]]]]]]]]]]]] ccccc",
"ccccc ]]]]]]]]]]]]]]]]]]] cccccc",
"cccccc  ]]]]]]]]]]]]]]]  ccccccc",
"cccccccc ]]]]]]]]]]]]] ccccccccc",
"ccccccccc   ]]]]]]]   cccccccccc",
"cccccccccccc       ccccccccccccc",
"cccccccccccccccccccccccccccccccc"
};
